{"title":"Hot Tub Time Machine UNRATED.BRRip.MP4.AAC.FEEL-FREE","uid":5631270,"size":1020236379,"categoryP":"video","categoryS":"movies","magnet":"?xt=urn:btih:94b479fdc5ccbce04ec7dcc9f5732269bed6e92a&amp;dn=Hot+Tub+Time+Machine+UNRATED.BRRip.MP4.AAC.FEEL-FREE&amp;tr=udp%3A%2F%2Ftracker.openbittorrent.com%3A80&amp;tr=udp%3A%2F%2Fopen.demonii.com%3A1337&amp;tr=udp%3A%2F%2Ftracker.coppersurfer.tk%3A6969&amp;tr=udp%3A%2F%2Fexodus.desync.com%3A6969","seeders":0,"leechers":0,"uploader":"hiest","files":7,"time":1276647839,"description":"Genre:Comedy | Sci-Fi\nLanguage:English\nIMDb:http://www.imdb.com/title/tt1231587/\nSource:UNRATED.720p.Bluray.x264-CBGB \nEncoder: Tony2\n.............................................\nGeneral\nComplete name : Hot Tub Time Machine UNRATED.BRRip.MP4.AAC.FEEL-FREE\nFormat : MPEG-4\nFormat profile : Base Media\nFile size : 972 MiB\nDuration : 1h 40mn\nOverall bit rate : 1 351 Kbps\n.............................................\nVideo\nID : 1\nFormat : MPEG-4 Visual\nFormat profile : Simple@L1\nFormat settings, BVOP : No\nFormat settings, QPel : No\nFormat settings, GMC : No warppoints\nFormat settings, Matrix : Default (H.263)\nCodec ID : 20\nDuration : 1h 40mn\nBit rate mode : Variable\nBit rate : 1 200 Kbps\nWidth : 704 pixels\nHeight : 304 pixels\nDisplay aspect ratio : 2.35:1\nFrame rate mode : Constant\nFrame rate : 29.970 fps\nResolution : 24 bits\nColorimetry : 4:2:0\nScan type : Progressive\nBits/(Pixel*Frame) : 0.187\nStream size : 863 MiB (89%)\nWriting library : Lavc51.40.4\n............................................\nAudio\nID : 2\nFormat : AAC\nFormat/Info : Advanced Audio Codec\nFormat version : Version 4\nFormat profile : LC\nFormat settings, SBR : No\nCodec ID : 40\nDuration : 1h 40mn\nBit rate mode : Variable\nBit rate : 144 Kbps\nChannel(s) : 6 channels\nChannel positions : Front: L C R, Rear: L R, LFE\nSampling rate : 48.0 KHz\nResolution : 16 bits\nStream size : 105 MiB (11%)\n............................................\nPlot: \nFour guy friends, all of them bored with their adult lives, travel back to their respective 80s heydays thanks to a time-bending hot tub\n...................................................\nScreens: &lt;a href=&quot;\nhttp://postimg.com/image/17000/16412.jpg&quot; rel=&quot;nofollow&quot; target=&quot;_NEW&quot;&gt;\nhttp://postimg.com/image/17000/16412.jpg&lt;/a&gt; &lt;a href=&quot;\nhttp://postimg.com/image/17000/16413.jpg&quot; rel=&quot;nofollow&quot; target=&quot;_NEW&quot;&gt;\nhttp://postimg.com/image/17000/16413.jpg&lt;/a&gt;\n........................................................\n........................................................","torrent":{"xt":"urn:btih:94b479fdc5ccbce04ec7dcc9f5732269bed6e92a","amp;dn":"Hot+Tub+Time+Machine+UNRATED.BRRip.MP4.AAC.FEEL-FREE","amp;tr":["udp%3A%2F%2Ftracker.openbittorrent.com%3A80","udp%3A%2F%2Fopen.demonii.com%3A1337","udp%3A%2F%2Ftracker.coppersurfer.tk%3A6969","udp%3A%2F%2Fexodus.desync.com%3A6969"],"infoHash":"94b479fdc5ccbce04ec7dcc9f5732269bed6e92a","infoHashBuffer":{"type":"Buffer","data":[148,180,121,253,197,204,188,224,78,199,220,201,245,115,34,105,190,214,233,42]},"announce":[],"urlList":[]}}